<svg xmlns="http://www.w3.org/2000/svg" xmlns:xlink="http://www.w3.org/1999/xlink" version="1.1" x="0px" y="0px" viewBox="0 0 100 125" enable-background="new 0 0 100 100" xml:space="preserve"><g><path d="M57,12.277C57,14.333,55.333,16,53.277,16h-8.555C42.667,16,41,14.333,41,12.277v-0.555C41,9.667,42.667,8,44.723,8h8.555   C55.333,8,57,9.667,57,11.723V12.277z"/><path fill="none" stroke="#000000" stroke-miterlimit="10" d="M72,85.596C72,90.789,67.789,95,62.596,95H34.404   C29.211,95,25,90.789,25,85.596V22.404C25,17.211,29.211,13,34.404,13h28.191C67.789,13,72,17.211,72,22.404V85.596z"/><path d="M63.379,13H35.167C29.974,13,25,17.316,25,22.51V39h47V22.51C72,17.316,68.572,13,63.379,13z M54,23h-3v4h-3v-4h-3v-2h3v-4   h3v4h3V23z"/><text transform="matrix(0 1 -1 0 42.3936 83.7715)" font-family="'Bauhaus93'" font-size="25.0777">-</text><polygon points="41.812,69.312 35.197,76.764 51.055,68.135 45.892,68.135 57.508,59.008 51.238,59.008 61.802,49.235    52.621,49.235 41.467,59.93 47.644,59.93 38.056,69.334  "/></g></svg>